<svg width="28" height="28" viewBox="0 0 28 28" fill="none" xmlns="http://www.w3.org/2000/svg">
<path d="M12.8143 12.8137C12.159 13.469 12.159 14.531 12.8143 15.1857C13.469 15.841 14.5315 15.841 15.1862 15.1857C15.8415 14.5305 15.8415 13.4685 15.1862 12.8137C14.531 12.159 13.469 12.159 12.8143 12.8137ZM14 1C6.82012 1 1 6.82012 1 14C1 21.1799 6.82012 27 14 27C21.1799 27 27 21.1799 27 14C27 6.82012 21.1799 1 14 1ZM20.6122 8.76069L17.1541 16.3274C16.9868 16.6934 16.6934 16.9868 16.3274 17.1541L8.76121 20.6122C7.88843 21.0111 6.98891 20.1116 7.38782 19.2388L10.8465 11.6721C11.0137 11.3061 11.3072 11.0127 11.6731 10.8454L19.2393 7.3873C20.1121 6.98891 21.0111 7.8879 20.6122 8.76069Z" stroke="#0F0F0F" stroke-width="2"/>
</svg>
