<svg xmlns="http://www.w3.org/2000/svg" width="25" height="25" viewBox="0 0 25 25" fill="none">
  <g clip-path="url(#clip0_68_899)">
    <path d="M3.67411 22.7608C0.821083 19.817 0.874257 15.0699 3.74179 12.1368L13.984 1.66016C16.1478 -0.553321 19.6652 -0.553516 21.8292 1.66016C23.9723 3.85225 23.9749 7.38911 21.8292 9.58379L12.9011 18.7074C11.4433 20.1985 9.06156 20.1777 7.6285 18.6587C6.24789 17.1953 6.29218 14.8758 7.6994 13.4364L14.7181 6.2667C15.02 5.9584 15.5146 5.95312 15.8229 6.25493L16.9391 7.34766C17.2475 7.64951 17.2527 8.14414 16.9509 8.45244L9.93295 15.6214C9.69213 15.8678 9.67728 16.2771 9.90131 16.5146C10.1148 16.7409 10.4504 16.7446 10.6673 16.5227L19.5955 7.39907C20.5532 6.41948 20.5532 4.82461 19.595 3.84448C18.658 2.88613 17.1557 2.88564 16.2183 3.84448L5.97606 14.321C4.27865 16.0574 4.25248 18.8679 5.91791 20.5863C7.57855 22.2999 10.2629 22.302 11.9266 20.6003L20.328 12.0066C20.6296 11.698 21.1242 11.6925 21.4328 11.9941L22.5498 13.0861C22.8583 13.3877 22.864 13.8823 22.5623 14.1909L14.1609 22.7845C11.2519 25.76 6.54652 25.7248 3.67411 22.7608Z" fill="#0F0F0F"/>
  </g>
  <defs>
    <clipPath id="clip0_68_899">
      <rect width="25" height="25" fill="white"/>
    </clipPath>
  </defs>
</svg>