<svg
                                xmlns="http://www.w3.org/2000/svg"
                                width="14"
                                height="18"
                                viewBox="0 0 14 18"
                                fill="none"
                            >
                                <g>
                                    <path
                                        d="M13.7303 2.9707C14.1422 2.49258 14.0766 1.78242 13.5808 1.38516C13.085 0.98789 12.3485 1.05117 11.9365 1.5293L7.00006 7.24219L2.0636 1.5293C1.65162 1.05117 0.915161 0.98789 0.419327 1.38516C-0.0765059 1.78242 -0.142131 2.49258 0.269848 2.9707L5.47974 9L0.269848 15.0293C-0.142131 15.5074 -0.0765059 16.2176 0.419327 16.6148C0.915161 17.0121 1.65162 16.9488 2.0636 16.4707L7.00006 10.7578L11.9365 16.4707C12.3485 16.9488 13.085 17.0121 13.5808 16.6148C14.0766 16.2176 14.1422 15.5074 13.7303 15.0293L8.52037 9L13.7303 2.9707Z"
                                        fill="black"
                                    />
                                </g>
                                <defs>
                                    <clipPath id="clip0_294_967">
                                        <rect
                                            width="14"
                                            height="18"
                                            fill="white"
                                        />
                                    </clipPath>
                                </defs>
                            </svg>