<svg xmlns="http://www.w3.org/2000/svg" width="30" height="30" viewBox="0 0 30 30" fill="none">
  <path d="M26.25 14.375C26.2543 16.0249 25.8688 17.6524 25.125 19.125C24.243 20.8897 22.8872 22.374 21.2093 23.4116C19.5314 24.4493 17.5978 24.9993 15.625 25C13.9752 25.0043 12.3476 24.6189 10.875 23.875L3.75 26.25L6.125 19.125C5.38116 17.6524 4.9957 16.0249 5 14.375C5.00076 12.4022 5.55076 10.4686 6.5884 8.79072C7.62603 7.11285 9.11032 5.75699 10.875 4.87504C12.3476 4.1312 13.9752 3.74573 15.625 3.75004H16.25C18.8554 3.89378 21.3163 4.99349 23.1614 6.83861C25.0065 8.68373 26.1063 11.1446 26.25 13.75V14.375Z" stroke="#0F0F0F" stroke-width="1.5" stroke-linecap="round" stroke-linejoin="round"/>
</svg>