<svg width="28" height="28" viewBox="0 0 28 28" fill="none" xmlns="http://www.w3.org/2000/svg">
<path d="M15.1666 14C15.1666 13.3557 14.6443 12.8333 13.9999 12.8333C13.3556 12.8333 12.8333 13.3557 12.8333 14C12.8333 14.6443 13.3556 15.1667 13.9999 15.1667C14.6443 15.1667 15.1666 14.6443 15.1666 14Z" fill="#0F0F0F" stroke="#0F0F0F" stroke-linecap="round" stroke-linejoin="round"/>
<path d="M7.00008 14C7.00008 13.3557 6.47775 12.8333 5.83341 12.8333C5.18908 12.8333 4.66675 13.3557 4.66675 14C4.66675 14.6443 5.18908 15.1667 5.83341 15.1667C6.47775 15.1667 7.00008 14.6443 7.00008 14Z" fill="#0F0F0F" stroke="#0F0F0F" stroke-linecap="round" stroke-linejoin="round"/>
<path d="M23.3333 14C23.3333 13.3557 22.811 12.8333 22.1667 12.8333C21.5223 12.8333 21 13.3557 21 14C21 14.6443 21.5223 15.1667 22.1667 15.1667C22.811 15.1667 23.3333 14.6443 23.3333 14Z" fill="#0F0F0F" stroke="#0F0F0F" stroke-linecap="round" stroke-linejoin="round"/>
</svg>
