<svg xmlns="http://www.w3.org/2000/svg" width="28" height="28" viewBox="0 0 28 28" fill="none">
  <path d="M13.9999 15.1667C14.6443 15.1667 15.1666 14.6443 15.1666 14C15.1666 13.3557 14.6443 12.8333 13.9999 12.8333C13.3556 12.8333 12.8333 13.3557 12.8333 14C12.8333 14.6443 13.3556 15.1667 13.9999 15.1667Z" fill="#0F0F0F" stroke="#0F0F0F" stroke-linecap="round" stroke-linejoin="round"/>
  <path d="M13.9999 7C14.6443 7 15.1666 6.47767 15.1666 5.83333C15.1666 5.189 14.6443 4.66667 13.9999 4.66667C13.3556 4.66667 12.8333 5.189 12.8333 5.83333C12.8333 6.47767 13.3556 7 13.9999 7Z" fill="#0F0F0F" stroke="#0F0F0F" stroke-linecap="round" stroke-linejoin="round"/>
  <path d="M13.9999 23.3333C14.6443 23.3333 15.1666 22.811 15.1666 22.1667C15.1666 21.5223 14.6443 21 13.9999 21C13.3556 21 12.8333 21.5223 12.8333 22.1667C12.8333 22.811 13.3556 23.3333 13.9999 23.3333Z" fill="#0F0F0F" stroke="#0F0F0F" stroke-linecap="round" stroke-linejoin="round"/>
</svg>