<svg xmlns="http://www.w3.org/2000/svg" width="30" height="30" viewBox="0 0 30 30" fill="none">
  <path d="M25.3803 6.01983C24.7806 5.40832 24.0685 4.92322 23.2847 4.59226C22.5009 4.26129 21.6609 4.09094 20.8125 4.09094C19.9641 4.09094 19.124 4.26129 18.3403 4.59226C17.5565 4.92322 16.8444 5.40832 16.2447 6.01983L15 7.28834L13.7552 6.01983C12.5438 4.78519 10.9007 4.09158 9.18742 4.09158C7.47415 4.09158 5.83106 4.78519 4.6196 6.01983C3.40813 7.25446 2.72754 8.92899 2.72754 10.675C2.72754 12.4211 3.40813 14.0956 4.6196 15.3302L5.8643 16.5987L15 25.9091L24.1356 16.5987L25.3803 15.3302C25.9803 14.719 26.4563 13.9933 26.7811 13.1945C27.1058 12.3958 27.273 11.5396 27.273 10.675C27.273 9.81042 27.1058 8.95428 26.7811 8.15553C26.4563 7.35677 25.9803 6.63105 25.3803 6.01983Z" stroke="#0F0F0F" stroke-width="1.5" stroke-linecap="round" stroke-linejoin="round"/>
</svg>