<svg width="100%" height="100%" viewBox="0 0 94 124" fill="none" xmlns="http://www.w3.org/2000/svg">
<rect x="1" y="1" width="92" height="122" stroke="#685C53" stroke-width="2"/>
<path className="custom-fill" d="M55.5 40L92 122H47.7459H2L38.5 40H55.5Z" fill="#EFC265"/>
<path d="M28 93H66V99H28V93Z" fill="white" stroke="#685C53" stroke-width="2"/>
<rect x="20" y="92" width="54" height="2" fill="#685C53"/>
<rect x="27" y="94" width="2" height="28" fill="#685C53"/>
<rect x="65" y="94" width="2" height="28" fill="#685C53"/>
<circle cx="47" cy="40" r="3" fill="#685C53"/>
<mask id="path-8-inside-1_499_927" fill="white">
<path d="M56 41C56 38.0826 55.0518 35.2847 53.364 33.2218C51.6761 31.1589 49.3869 30 47 30C44.6131 30 42.3239 31.1589 40.636 33.2218C38.9482 35.2847 38 38.0826 38 41L47 41H56Z"/>
</mask>
<path d="M56 41C56 38.0826 55.0518 35.2847 53.364 33.2218C51.6761 31.1589 49.3869 30 47 30C44.6131 30 42.3239 31.1589 40.636 33.2218C38.9482 35.2847 38 38.0826 38 41L47 41H56Z" fill="white" stroke="#685C53" stroke-width="4" mask="url(#path-8-inside-1_499_927)"/>
<rect x="46" y="1" width="2" height="30" fill="#685C53"/>
<rect x="33" y="67" width="28" height="19" fill="white" stroke="#685C53" stroke-width="2"/>
<line x1="33" y1="82" x2="61" y2="82" stroke="#685C53" stroke-width="2"/>
<rect x="46.5" y="86.5" width="1" height="5" fill="#D9D9D9" stroke="#685C53"/>
<rect x="40.5" y="90.5" width="13" height="1" fill="#D9D9D9" stroke="#685C53"/>
<rect x="46" y="94" width="2" height="5" fill="#685C53"/>
<circle cx="37.5" cy="96.5" r="0.5" fill="#685C53"/>
<circle cx="56.5" cy="96.5" r="0.5" fill="#685C53"/>
</svg>
