<svg xmlns="http://www.w3.org/2000/svg" width="155" height="19" viewBox="0 0 155 19" fill="none">
<path d="M0.191406 1.27734H6.19141C6.80859 1.27734 7.39844 1.32031 7.96094 1.40625C8.53125 1.49219 9.05859 1.64453 9.54297 1.86328C10.0273 2.08203 10.4688 2.38672 10.8672 2.77734C11.2656 3.16797 11.6055 3.66797 11.8867 4.27734C12.168 4.88672 12.3828 5.62109 12.5312 6.48047C12.6875 7.33984 12.7656 8.34766 12.7656 9.50391C12.7656 10.6992 12.6953 11.7422 12.5547 12.6328C12.4141 13.5156 12.2109 14.2734 11.9453 14.9062C11.6797 15.5312 11.3555 16.0469 10.9727 16.4531C10.5898 16.8516 10.1523 17.168 9.66016 17.4023C9.17578 17.6289 8.64062 17.7852 8.05469 17.8711C7.47656 17.957 6.85547 18 6.19141 18H0.191406V1.27734ZM5.42969 15.3867C5.82812 15.3867 6.21484 15.3789 6.58984 15.3633C6.96484 15.3398 7.3125 15.2695 7.63281 15.1523C7.96094 15.0352 8.25781 14.8594 8.52344 14.625C8.79688 14.3828 9.02734 14.043 9.21484 13.6055C9.41016 13.168 9.55859 12.6172 9.66016 11.9531C9.76953 11.2812 9.82422 10.457 9.82422 9.48047C9.82422 8.57422 9.77344 7.80859 9.67188 7.18359C9.57031 6.55078 9.42578 6.02734 9.23828 5.61328C9.05078 5.19922 8.82422 4.87891 8.55859 4.65234C8.30078 4.41797 8.00781 4.24609 7.67969 4.13672C7.35156 4.01953 6.99609 3.94922 6.61328 3.92578C6.23828 3.90234 5.84375 3.89062 5.42969 3.89062H3.00391V15.3867H5.42969ZM16.2461 1.27734H26.3008V3.89062H19.0586V8.28516H25.1289V10.8516H19.0586V15.3867H26.5V18H16.2461V1.27734ZM28.9961 15.5039C29.3945 15.5586 29.8242 15.6055 30.2852 15.6445C30.6836 15.6836 31.1367 15.7148 31.6445 15.7383C32.1602 15.7617 32.7031 15.7734 33.2734 15.7734C34.0312 15.7734 34.6328 15.7266 35.0781 15.6328C35.5234 15.5312 35.8633 15.3867 36.0977 15.1992C36.332 15.0039 36.4805 14.7656 36.543 14.4844C36.6133 14.2031 36.6484 13.8789 36.6484 13.5117C36.6484 13.2227 36.6328 12.9609 36.6016 12.7266C36.5781 12.4844 36.5156 12.2695 36.4141 12.082C36.3125 11.8945 36.168 11.7344 35.9805 11.6016C35.793 11.4609 35.5352 11.3477 35.207 11.2617L31.7969 10.3711C31.2578 10.2305 30.8008 10.043 30.4258 9.80859C30.0508 9.56641 29.7461 9.26172 29.5117 8.89453C29.2852 8.52734 29.1172 8.08594 29.0078 7.57031C28.9062 7.04688 28.8555 6.43359 28.8555 5.73047C28.8555 4.90234 28.9805 4.1875 29.2305 3.58594C29.4805 2.97656 29.832 2.47656 30.2852 2.08594C30.7461 1.69531 31.3008 1.40625 31.9492 1.21875C32.5977 1.03125 33.3203 0.9375 34.1172 0.9375C34.7812 0.9375 35.3867 0.976562 35.9336 1.05469C36.4883 1.125 36.9648 1.20313 37.3633 1.28906C37.832 1.39063 38.2578 1.50391 38.6406 1.62891V3.79688C38.2891 3.75 37.918 3.70703 37.5273 3.66797C37.1914 3.62891 36.8125 3.59766 36.3906 3.57422C35.9766 3.54297 35.5469 3.52734 35.1016 3.52734C34.4062 3.52734 33.8359 3.55078 33.3906 3.59766C32.9453 3.64453 32.5938 3.74219 32.3359 3.89062C32.0781 4.03906 31.8984 4.25 31.7969 4.52344C31.6953 4.79688 31.6445 5.16016 31.6445 5.61328C31.6445 5.86328 31.6562 6.08594 31.6797 6.28125C31.7109 6.47656 31.7734 6.64844 31.8672 6.79688C31.9688 6.94531 32.1094 7.07422 32.2891 7.18359C32.4766 7.29297 32.7266 7.39453 33.0391 7.48828L36.2148 8.40234C36.6211 8.51953 36.9805 8.64453 37.293 8.77734C37.6133 8.90234 37.8906 9.05469 38.125 9.23438C38.3594 9.40625 38.5586 9.60938 38.7227 9.84375C38.8945 10.0781 39.0312 10.3594 39.1328 10.6875C39.2344 11.0078 39.3086 11.3867 39.3555 11.8242C39.4023 12.2617 39.4258 12.7656 39.4258 13.3359C39.4258 14.2266 39.3477 14.9922 39.1914 15.6328C39.043 16.2656 38.7578 16.7852 38.3359 17.1914C37.9141 17.5898 37.332 17.8828 36.5898 18.0703C35.8555 18.2656 34.9023 18.3633 33.7305 18.3633C32.8242 18.3633 32.0703 18.3203 31.4688 18.2344C30.875 18.1562 30.3906 18.0664 30.0156 17.9648C29.5859 17.8477 29.2461 17.7148 28.9961 17.5664V15.5039ZM42.7305 1.27734H45.543V8.10938H48.1211L52.0234 1.27734H55.2695L50.6055 9.36328L55.5391 18H52.2461L48.1211 10.7227H45.543V18H42.7305V1.27734ZM64.2227 18.3633C63.5039 18.3633 62.8359 18.3125 62.2188 18.2109C61.6016 18.1094 61.0391 17.9336 60.5312 17.6836C60.0234 17.4258 59.5703 17.0859 59.1719 16.6641C58.7812 16.2422 58.4492 15.7109 58.1758 15.0703C57.9023 14.4219 57.6953 13.6562 57.5547 12.7734C57.4141 11.8906 57.3438 10.8633 57.3438 9.69141C57.3438 7.93359 57.5 6.48828 57.8125 5.35547C58.125 4.22266 58.5781 3.33203 59.1719 2.68359C59.7656 2.02734 60.4883 1.57422 61.3398 1.32422C62.1914 1.06641 63.1523 0.9375 64.2227 0.9375C64.9336 0.9375 65.5977 0.992188 66.2148 1.10156C66.832 1.21094 67.3945 1.39453 67.9023 1.65234C68.4102 1.91016 68.8594 2.25781 69.25 2.69531C69.6406 3.125 69.9688 3.66406 70.2344 4.3125C70.5078 4.96094 70.7148 5.73047 70.8555 6.62109C70.9961 7.50391 71.0664 8.52734 71.0664 9.69141C71.0664 10.8555 70.9961 11.8789 70.8555 12.7617C70.7148 13.6445 70.5078 14.4102 70.2344 15.0586C69.9688 15.6992 69.6406 16.2344 69.25 16.6641C68.8594 17.0859 68.4102 17.4219 67.9023 17.6719C67.3945 17.9219 66.832 18.0977 66.2148 18.1992C65.5977 18.3086 64.9336 18.3633 64.2227 18.3633ZM64.2227 15.7734C64.9883 15.7734 65.6211 15.6836 66.1211 15.5039C66.6289 15.3242 67.0312 15.0078 67.3281 14.5547C67.625 14.0938 67.832 13.4727 67.9492 12.6914C68.0742 11.9023 68.1367 10.9023 68.1367 9.69141C68.1367 8.47266 68.0742 7.46875 67.9492 6.67969C67.832 5.89062 67.625 5.26562 67.3281 4.80469C67.0312 4.33594 66.6289 4.01172 66.1211 3.83203C65.6211 3.64453 64.9883 3.55078 64.2227 3.55078C63.457 3.55078 62.8203 3.64453 62.3125 3.83203C61.8047 4.01172 61.4023 4.33594 61.1055 4.80469C60.8086 5.26562 60.5977 5.89062 60.4727 6.67969C60.3555 7.46875 60.2969 8.47266 60.2969 9.69141C60.2969 10.9023 60.3555 11.9023 60.4727 12.6914C60.5977 13.4727 60.8086 14.0938 61.1055 14.5547C61.4023 15.0078 61.8047 15.3242 62.3125 15.5039C62.8203 15.6836 63.457 15.7734 64.2227 15.7734ZM74.5586 1.27734H80.7812C81.2266 1.27734 81.6602 1.30859 82.082 1.37109C82.5117 1.42578 82.9141 1.52734 83.2891 1.67578C83.6719 1.82422 84.0195 2.02734 84.332 2.28516C84.6445 2.53516 84.9141 2.85938 85.1406 3.25781C85.375 3.65625 85.5547 4.13281 85.6797 4.6875C85.8047 5.24219 85.8672 5.89453 85.8672 6.64453C85.8672 7.14453 85.8242 7.59375 85.7383 7.99219C85.6602 8.38281 85.5508 8.73047 85.4102 9.03516C85.2773 9.33984 85.1211 9.60547 84.9414 9.83203C84.7695 10.0586 84.5938 10.2539 84.4141 10.418C83.9844 10.793 83.5 11.0547 82.9609 11.2031V11.2266L86.4883 18H83.2773L80.1484 11.8594H77.3711V18H74.5586V1.27734ZM80.7578 9.21094C82.2266 9.21094 82.9609 8.30078 82.9609 6.48047C82.9609 6.00391 82.9062 5.60156 82.7969 5.27344C82.6953 4.9375 82.543 4.66797 82.3398 4.46484C82.1445 4.26172 81.9062 4.11719 81.625 4.03125C81.3438 3.9375 81.0312 3.89062 80.6875 3.89062H77.3711V9.21094H80.7578ZM93.0859 1.27734H96.8125L102.285 18H99.1797L97.7734 13.4648H92.0781L90.7305 18H87.6602L93.0859 1.27734ZM97 10.9453L94.9375 3.86719H94.8906L92.8281 10.9453H97ZM107.605 3.86719H102.59V1.27734H115.457V3.86719H110.395V18H107.605V3.86719ZM117.73 1.27734H120.543V18H117.73V1.27734ZM130.902 18.3633C130.184 18.3633 129.516 18.3125 128.898 18.2109C128.281 18.1094 127.719 17.9336 127.211 17.6836C126.703 17.4258 126.25 17.0859 125.852 16.6641C125.461 16.2422 125.129 15.7109 124.855 15.0703C124.582 14.4219 124.375 13.6562 124.234 12.7734C124.094 11.8906 124.023 10.8633 124.023 9.69141C124.023 7.93359 124.18 6.48828 124.492 5.35547C124.805 4.22266 125.258 3.33203 125.852 2.68359C126.445 2.02734 127.168 1.57422 128.02 1.32422C128.871 1.06641 129.832 0.9375 130.902 0.9375C131.613 0.9375 132.277 0.992188 132.895 1.10156C133.512 1.21094 134.074 1.39453 134.582 1.65234C135.09 1.91016 135.539 2.25781 135.93 2.69531C136.32 3.125 136.648 3.66406 136.914 4.3125C137.188 4.96094 137.395 5.73047 137.535 6.62109C137.676 7.50391 137.746 8.52734 137.746 9.69141C137.746 10.8555 137.676 11.8789 137.535 12.7617C137.395 13.6445 137.188 14.4102 136.914 15.0586C136.648 15.6992 136.32 16.2344 135.93 16.6641C135.539 17.0859 135.09 17.4219 134.582 17.6719C134.074 17.9219 133.512 18.0977 132.895 18.1992C132.277 18.3086 131.613 18.3633 130.902 18.3633ZM130.902 15.7734C131.668 15.7734 132.301 15.6836 132.801 15.5039C133.309 15.3242 133.711 15.0078 134.008 14.5547C134.305 14.0938 134.512 13.4727 134.629 12.6914C134.754 11.9023 134.816 10.9023 134.816 9.69141C134.816 8.47266 134.754 7.46875 134.629 6.67969C134.512 5.89062 134.305 5.26562 134.008 4.80469C133.711 4.33594 133.309 4.01172 132.801 3.83203C132.301 3.64453 131.668 3.55078 130.902 3.55078C130.137 3.55078 129.5 3.64453 128.992 3.83203C128.484 4.01172 128.082 4.33594 127.785 4.80469C127.488 5.26562 127.277 5.89062 127.152 6.67969C127.035 7.46875 126.977 8.47266 126.977 9.69141C126.977 10.9023 127.035 11.9023 127.152 12.6914C127.277 13.4727 127.488 14.0938 127.785 14.5547C128.082 15.0078 128.484 15.3242 128.992 15.5039C129.5 15.6836 130.137 15.7734 130.902 15.7734ZM141.238 1.27734H145.902L151.996 15.3867H152.055C152.047 15.1055 152.039 14.8203 152.031 14.5312C152.023 14.2812 152.02 14.0117 152.02 13.7227C152.02 13.4336 152.02 13.1562 152.02 12.8906V1.27734H154.797V18H150.238L145.082 6.23438C144.941 5.90625 144.809 5.60156 144.684 5.32031C144.559 5.03906 144.453 4.79297 144.367 4.58203C144.258 4.33203 144.16 4.10156 144.074 3.89062H144.027V18H141.238V1.27734Z" fill="#685C53"/>
</svg>