<svg width="110" height="110" viewBox="0 0 110 110" fill="none" xmlns="http://www.w3.org/2000/svg">
<rect width="110" height="110" fill="#DBDBDB"/>
<path d="M83.875 88V77.6875C83.875 74.0408 82.4263 70.5434 79.8477 67.9648C77.2691 65.3862 73.7717 63.9375 70.125 63.9375H42.625C38.9783 63.9375 35.4809 65.3862 32.9023 67.9648C30.3237 70.5434 28.875 74.0408 28.875 77.6875V88" fill="white"/>
<path d="M83.875 88V77.6875C83.875 74.0408 82.4263 70.5434 79.8477 67.9648C77.2691 65.3862 73.7717 63.9375 70.125 63.9375H42.625C38.9783 63.9375 35.4809 65.3862 32.9023 67.9648C30.3237 70.5434 28.875 74.0408 28.875 77.6875V88" stroke="white" stroke-width="2" stroke-linecap="round" stroke-linejoin="round"/>
<path d="M28.875 88H83.875" stroke="white" stroke-width="2" stroke-linecap="round"/>
<path d="M56.375 50.1875C63.9689 50.1875 70.125 44.0314 70.125 36.4375C70.125 28.8436 63.9689 22.6875 56.375 22.6875C48.7811 22.6875 42.625 28.8436 42.625 36.4375C42.625 44.0314 48.7811 50.1875 56.375 50.1875Z" fill="white" stroke="white" stroke-width="2" stroke-linecap="round" stroke-linejoin="round"/>
</svg>
