<svg xmlns="http://www.w3.org/2000/svg" width="20" height="20" viewBox="0 0 20 20" fill="none">
  <path d="M0 10C0 4.47581 4.47581 0 10 0C15.5242 0 20 4.47581 20 10C20 15.5242 15.5242 20 10 20C4.47581 20 0 15.5242 0 10ZM5.79032 11.1653L8.70968 8.12097V15.4839C8.70968 16.0202 9.14113 16.4516 9.67742 16.4516H10.3226C10.8589 16.4516 11.2903 16.0202 11.2903 15.4839V8.12097L14.2097 11.1653C14.5847 11.5565 15.2097 11.5645 15.5927 11.1815L16.0323 10.7379C16.4113 10.3589 16.4113 9.74597 16.0323 9.37097L10.6855 4.02016C10.3065 3.64113 9.69355 3.64113 9.31855 4.02016L3.96371 9.37097C3.58468 9.75 3.58468 10.3629 3.96371 10.7379L4.40323 11.1815C4.79032 11.5645 5.41532 11.5565 5.79032 11.1653Z" fill="#0F0F0F"/>
</svg>