<svg xmlns="http://www.w3.org/2000/svg" width="22" height="24" viewBox="0 0 22 24" fill="none">
  <path d="M17.5 23.0001C19.3225 23.0001 20.8 21.5227 20.8 19.7001C20.8 17.8776 19.3225 16.4001 17.5 16.4001C15.6774 16.4001 14.2 17.8776 14.2 19.7001C14.2 21.5227 15.6774 23.0001 17.5 23.0001Z" stroke="#0F0F0F" stroke-width="1.5" stroke-linecap="round" stroke-linejoin="round"/>
  <path d="M17.5 7.6C19.3225 7.6 20.8 6.12254 20.8 4.3C20.8 2.47747 19.3225 1 17.5 1C15.6774 1 14.2 2.47747 14.2 4.3C14.2 6.12254 15.6774 7.6 17.5 7.6Z" stroke="#0F0F0F" stroke-width="1.5" stroke-linecap="round" stroke-linejoin="round"/>
  <path d="M4.3 15.3001C6.12254 15.3001 7.6 13.8227 7.6 12.0001C7.6 10.1775 6.12254 8.70007 4.3 8.70007C2.47747 8.70007 1 10.1775 1 12.0001C1 13.8227 2.47747 15.3001 4.3 15.3001Z" stroke="#0F0F0F" stroke-width="1.5" stroke-linecap="round" stroke-linejoin="round"/>
  <path d="M14.7499 5.94995L7.04993 10.35" stroke="#0F0F0F" stroke-width="1.5"/>
  <path d="M7.04993 13.65L14.7499 18.05" stroke="#0F0F0F" stroke-width="1.5"/>
</svg>