<svg xmlns="http://www.w3.org/2000/svg" width="30" height="30" viewBox="0 0 30 30" fill="none">
  <g clip-path="url(#clip0_86_977)">
    <path d="M26.25 26.625C26.25 25.5 30 23.25 30 20.8125C30 18 27.375 15.75 24.1875 14.8125C25.5 13.3125 26.25 11.625 26.25 9.5625C26.25 4.3125 20.8125 0 13.875 0C7.3125 0 0 3.9375 0 9.5625C0 13.5 3 16.3125 4.3125 17.4375C4.125 19.6875 3.1875 20.625 3.1875 20.625L0.9375 22.5H3.75C6.75 22.5 9.1875 21.5625 10.6875 20.4375V20.8125C10.6875 24.5625 14.8125 27.5625 20.0625 27.5625H21.1875C21.9375 28.5 24.375 30.1875 27.5625 30.1875C27.75 30 26.25 29.25 26.25 26.625ZM13.875 1.875C19.6875 1.875 24.375 5.4375 24.375 9.5625C24.375 13.6875 19.5 17.25 13.5 17.25H11.4375L11.25 17.625C10.6875 18.375 8.4375 19.875 5.4375 20.4375C5.625 19.6875 5.625 18.5625 5.625 17.0625V16.5C3.75 15 1.6875 12.375 1.6875 9.75C1.6875 5.625 7.6875 1.875 13.875 1.875Z" fill="#0f0f0f"/>
  </g>
  <defs>
    <clipPath id="clip0_86_977">
      <rect width="30" height="30" fill="white"/>
    </clipPath>
  </defs>
</svg>